<svg width="339" height="668.13131" xmlns="http://www.w3.org/2000/svg">
 <title>a_day_off</title>

 <g>
  <title>background</title>
  <rect fill="none" id="canvas_background" height="670.13131" width="341" y="-1" x="-1"/>
 </g>
 <g>
  <title>Layer 1</title>
  <path id="svg_1" fill="#6c63ff" d="m169.95708,644.10882c0.17359,17.79414 -10.34427,24.10956 -23.39225,24.23685q-0.45462,0.00442 -0.90495,-0.00133q-0.90727,-0.01072 -1.796,-0.06514c-11.78437,-0.71893 -20.9982,-7.16091 -21.15963,-23.70942c-0.16706,-17.12566 21.50989,-38.95143 23.1358,-40.56546l0.00287,-0.00148c0.06177,-0.06151 0.09339,-0.09226 0.09339,-0.09226s23.8472,22.40554 24.02077,40.19824z"/>
  <circle id="svg_4" fill="#6c63ff" r="166" cy="166" cx="173"/>
  <polygon id="svg_30" fill="#3f3d56" points="189 666 155 666 170.5 141 189 666"/>
  <polygon id="svg_31" fill="#3f3d56" points="173.5 240.5 210 190 173 253 169 246 173.5 240.5"/>
  <polygon id="svg_32" fill="#3f3d56" points="169.5 291.5 133 241 170 304 174 297 169.5 291.5"/>
  <rect id="svg_33" fill="#3f3d56" transform="rotate(-30 -354.0042724609376,188.74734497070307) " height="10" width="19" y="636.68169" x="-5.50427"/>
 </g>
</svg>