<svg width="468.59653000000003" height="413.44451" xmlns="http://www.w3.org/2000/svg">
 <title>biking</title>

 <g>
  <title>background</title>
  <rect fill="none" id="canvas_background" height="415.44451" width="470.59653" y="-1" x="-1"/>
 </g>
 <g>
  <title>Layer 1</title>
  <path id="svg_5" fill="#2f2e41" d="m207.5,143.9445l-5,112s13,106 10,109s-11,9 -5,16s28,12 29,8s3,-118 3,-118l7,-135l-39,8z"/>
  <path id="svg_6" opacity="0.2" d="m207.5,143.9445l-5,112s13,106 10,109s-11,9 -5,16s28,12 29,8s3,-118 3,-118l7,-135l-39,8z"/>
  <path id="svg_7" fill="#2f2e41" d="m212.5,378.9445s-25,19 -28,19s-30,9 -11,13s65,2 66,-4s-3,-24.20866 -3,-24.20866l-24,-3.79134z"/>
  <path id="svg_8" opacity="0.2" d="m212.5,378.9445s-25,19 -28,19s-30,9 -11,13s65,2 66,-4s-3,-24.20866 -3,-24.20866l-24,-3.79134z"/>
  <path id="svg_9" fill="#6c63ff" d="m150.5,59.9445s-11,4 -11,7s-10,41 -12,43s-3,11 -3,11s-10,23 -8,23s19,-4 20,0s9,-25 9,-25l17,-34l-12,-25z"/>
  <path id="svg_10" fill="#ffb8b8" d="m116.5,147.9445s3,22 11,24s0,-28 0,-28l-11,4z"/>
  <path id="svg_11" fill="#ffb8b8" d="m142.5,47.9445s6,13 9,20s31,-18 31,-18s-15,-11 -15,-16s-25,14 -25,14z"/>
  <path id="svg_14" fill="#2f2e41" d="m92.5,413.9445a91,91 0 1 1 91,-91a91.10284,91.10284 0 0 1 -91,91zm0,-180a89,89 0 1 0 89,89a89.10056,89.10056 0 0 0 -89,-89z"/>
  <path id="svg_15" fill="#2f2e41" d="m372.5,413.9445a91,91 0 1 1 91,-91a91.10284,91.10284 0 0 1 -91,91zm0,-180a89,89 0 1 0 89,89a89.10025,89.10025 0 0 0 -89,-89z"/>
  <circle id="svg_16" fill="#2f2e41" r="6" cy="322.94451" cx="92.5"/>
  <circle id="svg_17" fill="#2f2e41" r="6" cy="322.94451" cx="374.5"/>
  <polygon id="svg_18" fill="#2f2e41" points="101.42001342773438,314.33697509765625 99.57998657226562,313.552001953125 151.84500122070312,190.93099975585938 300.05499267578125,193.95498657226562 300.34197998046875,194.40499877929688 373.34197998046875,308.405029296875 371.65802001953125,309.4840087890625 298.94500732421875,195.93399047851562 153.15499877929688,192.9580078125 101.42001342773438,314.33697509765625 "/>
  <polygon id="svg_19" fill="#2f2e41" points="257.125,337.12799072265625 295.53802490234375,201.6719970703125 297.46197509765625,202.21701049804688 259.875,334.760986328125 360.3740234375,321.9520263671875 360.6259765625,323.93701171875 257.125,337.12799072265625 "/>
  <rect id="svg_20" fill="#2f2e41" transform="rotate(-44.449100494384766 -656.0740356445312,221.30477905273443) " height="147.08501" width="1.99988" y="784.48453" x="-83.87224"/>
  <rect id="svg_21" fill="#2f2e41" transform="rotate(-74.76941680908203 -398.6774291992188,692.1361694335936) " height="1.99993" width="22.80351" y="1234.35846" x="267.62254"/>
  <polygon id="svg_22" fill="#2f2e41" points="155.47601318359375,185.16598510742188 153.52398681640625,184.72299194335938 158.24700927734375,163.94500732421875 141.5,163.94500732421875 141.5,150.94500732421875 143.5,150.94500732421875 143.5,161.94500732421875 160.75299072265625,161.94500732421875 155.47601318359375,185.16598510742188 "/>
  <path id="svg_23" fill="#2f2e41" d="m269.5,149.9445s0,-6 13,-3s53,11 56,10s2,6 -11,9s-28,-4 -31,-6s-27,-10 -27,-10z"/>
  <rect id="svg_24" fill="#6c63ff" height="10" width="26" y="328.94451" x="207.5"/>
  <path id="svg_25" fill="#2f2e41" d="m258.5,355.9445a20,20 0 1 1 20,-20a20.02229,20.02229 0 0 1 -20,20zm0,-38a18,18 0 1 0 18,18a18.02094,18.02094 0 0 0 -18,-18z"/>
  <circle id="svg_26" fill="#ffb8b8" r="24" cy="33.94451" cx="151.5"/>
  <path id="svg_27" fill="#2f2e41" d="m227.5,145.9445s-69,40 -68,53s53,84 53,84s4,21 8,21s29,9 30,3s-8,-13 -7,-17s-44,-77 -44,-77s96.30708,-36 76.15354,-67s-48.15354,0 -48.15354,0z"/>
  <path id="svg_28" fill="#2f2e41" d="m229.5,299.9445s-12,3 -14,7s-37,17 -27,20s68,4 70,2s0,-25.2126 -8,-25.1063s-17,3.1063 -21,-3.8937z"/>
  <path id="svg_29" fill="#6c63ff" d="m151.5,70.9445l22.5,-27.5s25.5,-7.5 36.5,7.5s41,52 51,60s24,39 19,40s-33,-11 -44,-3s-32,9 -33,5s-61,-71 -61,-80s6.39359,-10.93113 6.39359,-10.93113l2.60641,8.93113z"/>
  <rect id="svg_30" fill="#2f2e41" transform="rotate(19.470699310302734 -174.29702758789077,-506.99526977539057) " rx="3" height="6" width="38" y="0.22698" x="328.40471"/>
  <path id="svg_31" fill="#ffb8b8" d="m95.5,137.9445s-35,10 -32,21s35,-13 35,-13l-3,-8z"/>
  <path id="svg_32" fill="#6c63ff" d="m186.5,50.9445s-14,12 -17,26s-18,39 -18,39l-61,20s-4,19 2,19s73,-14 75,-17s45,-60 45,-60s4,-31 -26,-27z"/>
  <path id="svg_33" fill="#2f2e41" d="m136.59357,6.16606a4.73339,4.73339 0 0 1 -2.06116,1.03435a1.47087,1.47087 0 0 1 -1.70452,-1.1807a6.11136,6.11136 0 0 1 -2.33876,2.99963c-1.1451,0.59683 -2.91578,0.09638 -3.08083,-1.18434a5.40475,5.40475 0 0 1 -1.244,2.62583a1.8631,1.8631 0 0 1 -2.61916,0.08755c0.50148,2.74053 0.192,5.55888 0.34944,8.34046s0.89921,5.73046 3.00075,7.55954c3.06485,2.66751 7.67364,2.00916 11.7052,1.50379a3.55294,3.55294 0 0 1 1.83433,0.10034c1.50955,0.64313 1.44107,2.7445 1.46142,4.38521a12.18456,12.18456 0 0 0 10.66923,11.57068a6.10787,6.10787 0 0 0 4.53952,-1.1079c1.14466,-0.97023 1.72935,-2.55159 3.041,-3.28043c2.13359,-1.18558 4.72122,0.54346 6.28115,2.4208s3.09735,4.18665 5.5139,4.53031c3.196,0.4545 5.63028,-2.80262 6.82457,-5.80177a33.82171,33.82171 0 0 0 -0.67217,-26.2798c-6.67336,-14.54697 -29.46986,-16.84785 -41.49991,-8.32355z"/>
 </g>
</svg>