<svg width="937.59653" height="653.44451" xmlns="http://www.w3.org/2000/svg">
 <title>biking</title>

 <g>
  <title>background</title>
  <rect fill="none" id="canvas_background" height="522" width="372" y="-1" x="-1"/>
 </g>
 <g>
  <title>Layer 1</title>
  <polygon id="svg_1" fill="#f2f2f2" points="195.992 26.994 200.088 364.913 377.078 451.126 372.982 113.208 195.992 26.994"/>
  <polygon id="svg_2" fill="#f2f2f2" points="142.208 0 9.957 271.502 189.403 358.913 185.307 20.994 142.208 0"/>
  <polygon id="svg_3" fill="#f2f2f2" points="937.597 381.414 580.403 207.422 584.499 545.34 805.345 652.916 937.597 381.414"/>
  <polygon id="svg_4" fill="#f2f2f2" points="388.982 113.208 393.078 451.126 570.069 537.34 565.973 199.422 388.982 113.208"/>
  <path id="svg_5" fill="#2f2e41" d="m450.5,382.9445l-5,112s13,106 10,109s-11,9 -5,16s28,12 29,8s3,-118 3,-118l7,-135l-39,8z"/>
  <path id="svg_6" opacity="0.2" d="m450.5,382.9445l-5,112s13,106 10,109s-11,9 -5,16s28,12 29,8s3,-118 3,-118l7,-135l-39,8z"/>
  <path id="svg_7" fill="#2f2e41" d="m455.5,617.9445s-25,19 -28,19s-30,9 -11,13s65,2 66,-4s-3,-24.20866 -3,-24.20866l-24,-3.79134z"/>
  <path id="svg_8" opacity="0.2" d="m455.5,617.9445s-25,19 -28,19s-30,9 -11,13s65,2 66,-4s-3,-24.20866 -3,-24.20866l-24,-3.79134z"/>
  <path id="svg_9" fill="#6c63ff" d="m393.5,298.9445s-11,4 -11,7s-10,41 -12,43s-3,11 -3,11s-10,23 -8,23s19,-4 20,0s9,-25 9,-25l17,-34l-12,-25z"/>
  <path id="svg_10" fill="#ffb8b8" d="m359.5,386.9445s3,22 11,24s0,-28 0,-28l-11,4z"/>
  <path id="svg_11" fill="#ffb8b8" d="m385.5,286.9445s6,13 9,20s31,-18 31,-18s-15,-11 -15,-16s-25,14 -25,14z"/>
  <path id="svg_12" fill="#3f3d56" d="m97.03916,611.99996c6.70634,24.79066 29.67708,40.14415 29.67708,40.14415s12.0976,-24.84013 5.39126,-49.6308s-29.67707,-40.14414 -29.67707,-40.14414s-12.09761,24.84008 -5.39127,49.63079z"/>
  <path id="svg_13" fill="#6c63ff" d="m106.89366,606.67218c18.40229,17.91389 20.65,45.45172 20.65,45.45172s-27.58831,-1.50634 -45.99061,-19.42023s-20.65,-45.45172 -20.65,-45.45172s27.58831,1.5063 45.99061,19.42023z"/>
  <path id="svg_14" fill="#2f2e41" d="m335.5,652.9445a91,91 0 1 1 91,-91a91.10284,91.10284 0 0 1 -91,91zm0,-180a89,89 0 1 0 89,89a89.10056,89.10056 0 0 0 -89,-89z"/>
  <path id="svg_15" fill="#2f2e41" d="m615.5,652.9445a91,91 0 1 1 91,-91a91.10284,91.10284 0 0 1 -91,91zm0,-180a89,89 0 1 0 89,89a89.10025,89.10025 0 0 0 -89,-89z"/>
  <circle id="svg_16" fill="#2f2e41" r="6" cy="561.94451" cx="335.5"/>
  <circle id="svg_17" fill="#2f2e41" r="6" cy="561.94451" cx="617.5"/>
  <polygon id="svg_18" fill="#2f2e41" points="344.42 553.337 342.58 552.552 394.845 429.931 543.055 432.955 543.342 433.405 616.342 547.405 614.658 548.484 541.945 434.934 396.155 431.958 344.42 553.337"/>
  <polygon id="svg_19" fill="#2f2e41" points="500.125 576.128 538.538 440.672 540.462 441.217 502.875 573.761 603.374 560.952 603.626 562.937 500.125 576.128"/>
  <rect id="svg_20" fill="#2f2e41" transform="rotate(-44.449100494384766 -413.0740356445312,460.3047790527344) " height="147.08501" width="1.99988" y="1023.48453" x="159.12776"/>
  <rect id="svg_21" fill="#2f2e41" transform="rotate(-74.76941680908203 -155.67744445800778,931.1361694335938) " height="1.99993" width="22.80351" y="1473.35846" x="510.62254"/>
  <polygon id="svg_22" fill="#2f2e41" points="398.476 424.166 396.524 423.723 401.247 402.945 384.5 402.945 384.5 389.945 386.5 389.945 386.5 400.945 403.753 400.945 398.476 424.166"/>
  <path id="svg_23" fill="#2f2e41" d="m512.5,388.9445s0,-6 13,-3s53,11 56,10s2,6 -11,9s-28,-4 -31,-6s-27,-10 -27,-10z"/>
  <rect id="svg_24" fill="#6c63ff" height="10" width="26" y="567.94451" x="450.5"/>
  <path id="svg_25" fill="#2f2e41" d="m501.5,594.9445a20,20 0 1 1 20,-20a20.02229,20.02229 0 0 1 -20,20zm0,-38a18,18 0 1 0 18,18a18.02094,18.02094 0 0 0 -18,-18z"/>
  <circle id="svg_26" fill="#ffb8b8" r="24" cy="272.94451" cx="394.5"/>
  <path id="svg_27" fill="#2f2e41" d="m470.5,384.9445s-69,40 -68,53s53,84 53,84s4,21 8,21s29,9 30,3s-8,-13 -7,-17s-44,-77 -44,-77s96.30708,-36 76.15354,-67s-48.15354,0 -48.15354,0z"/>
  <path id="svg_28" fill="#2f2e41" d="m472.5,538.9445s-12,3 -14,7s-37,17 -27,20s68,4 70,2s0,-25.2126 -8,-25.1063s-17,3.1063 -21,-3.8937z"/>
  <path id="svg_29" fill="#6c63ff" d="m394.5,309.9445l22.5,-27.5s25.5,-7.5 36.5,7.5s41,52 51,60s24,39 19,40s-33,-11 -44,-3s-32,9 -33,5s-61,-71 -61,-80s6.39359,-10.93113 6.39359,-10.93113l2.60641,8.93113z"/>
  <rect id="svg_30" fill="#2f2e41" transform="rotate(19.470699310302734 68.70297241210953,-267.9952697753907) " rx="3" height="6" width="38" y="239.22698" x="571.40471"/>
  <path id="svg_31" fill="#ffb8b8" d="m338.5,376.9445s-35,10 -32,21s35,-13 35,-13l-3,-8z"/>
  <path id="svg_32" fill="#6c63ff" d="m429.5,289.9445s-14,12 -17,26s-18,39 -18,39l-61,20s-4,19 2,19s73,-14 75,-17s45,-60 45,-60s4,-31 -26,-27z"/>
  <path id="svg_33" fill="#2f2e41" d="m379.59357,245.16606a4.73339,4.73339 0 0 1 -2.06116,1.03435a1.47087,1.47087 0 0 1 -1.70452,-1.1807a6.11136,6.11136 0 0 1 -2.33876,2.99963c-1.1451,0.59683 -2.91578,0.09638 -3.08083,-1.18434a5.40475,5.40475 0 0 1 -1.244,2.62583a1.8631,1.8631 0 0 1 -2.61916,0.08755c0.50148,2.74053 0.192,5.55888 0.34944,8.34046s0.89921,5.73046 3.00075,7.55954c3.06485,2.66751 7.67364,2.00916 11.7052,1.50379a3.55294,3.55294 0 0 1 1.83433,0.10034c1.50955,0.64313 1.44107,2.7445 1.46142,4.38521a12.18456,12.18456 0 0 0 10.66923,11.57068a6.10787,6.10787 0 0 0 4.53952,-1.1079c1.14466,-0.97023 1.72935,-2.55159 3.041,-3.28043c2.13359,-1.18558 4.72122,0.54346 6.28115,2.4208s3.09735,4.18665 5.5139,4.53031c3.196,0.4545 5.63028,-2.80262 6.82457,-5.80177a33.82171,33.82171 0 0 0 -0.67217,-26.2798c-6.67336,-14.54697 -29.46986,-16.84785 -41.49991,-8.32355z"/>
  <path id="svg_34" fill="#2f2e41" d="m801.88867,652.90349l-1.77735,-0.918c23.082,-44.624 10.73926,-102.5752 -3.67871,-143.332a439.29051,439.29051 0 0 0 -37.27783,-78.67481l1.69043,-1.06836a441.53687,441.53687 0 0 1 37.47217,79.0752c14.55078,41.12988 26.98047,99.65918 3.57129,144.91797z"/>
  <rect id="svg_35" fill="#2f2e41" transform="matrix(0.17975,-0.98371,0.98371,0.17975,65.05255,1288.53009) " height="1.99936" width="72.18033" y="587.22257" x="908.61157"/>
  <rect id="svg_36" fill="#2f2e41" transform="rotate(-42.93967819213867 -333.55859375000006,661.6598510742186) " height="98.35141" width="2.00072" y="1262.2064" x="562.14279"/>
  <rect id="svg_37" fill="#2f2e41" transform="rotate(-54.137149810791016 -310.6601257324215,957.9995117187502) " height="2.00031" width="58.00862" y="1673.22161" x="628.5373"/>
  <circle id="svg_38" fill="#6c63ff" r="10" cy="400.44451" cx="825"/>
  <circle id="svg_39" fill="#3f3d56" r="10" cy="477.44451" cx="716"/>
  <circle id="svg_40" fill="#3f3d56" r="10" cy="487.44451" cx="760"/>
  <circle id="svg_41" fill="#6c63ff" r="10" cy="526.44451" cx="740"/>
  <circle id="svg_42" fill="#3f3d56" r="10" cy="551.44451" cx="865"/>
  <circle id="svg_43" fill="#3f3d56" r="10" cy="562.44451" cx="832"/>
  <circle id="svg_44" fill="#3f3d56" r="10" cy="594.44451" cx="855"/>
  <circle id="svg_45" fill="#3f3d56" r="10" cy="412.44451" cx="750"/>
  <rect id="svg_47" fill="#f2f2f2" transform="rotate(30 190.958023071289,-154.4251556396484) " height="98" width="98" y="382.15944" x="361.15976"/>
  <path id="svg_48" fill="#3f3d56" d="m108,546.30685a22,22 0 1 1 22,-22a22.02489,22.02489 0 0 1 -22,22zm0,-42a20,20 0 1 0 20,20a20.02229,20.02229 0 0 0 -20,-20z"/>
 </g>
</svg>