<svg width="970.15365" height="753.56388" xmlns="http://www.w3.org/2000/svg">
 <title>Mobile app</title>

 <g>
  <title>background</title>
  <rect fill="none" id="canvas_background" height="602" width="802" y="-1" x="-1"/>
 </g>
 <g>
  <title>Layer 1</title>
  <path id="svg_1" fill="#f2f2f2" d="m718.76847,430.50768l-192.66376,-240.75757a64.6863,64.6863 0 0 1 -31.15834,15.733c-36.27094,7.14326 -71.69282,-17.62565 -79.117,-55.32291c-5.24805,-26.64771 4.91144,-52.60794 24.12256,-68.06873l-65.69283,-82.09147l-374.2591,319.862l344.50931,430.50768l374.25916,-319.862z"/>
  <circle id="svg_3" stroke-width="2" stroke-miterlimit="10" stroke="#3f3d56" fill="none" r="14.75556" cy="56.91588" cx="619.42905"/>
  <circle id="svg_4" stroke-width="2" stroke-miterlimit="10" stroke="#3f3d56" fill="none" r="14.75556" cy="485.91588" cx="814.42905"/>
  <circle id="svg_5" stroke-width="2" stroke-miterlimit="10" stroke="#3f3d56" fill="none" r="14.75556" cy="93.91588" cx="170.69572"/>
  <circle id="svg_6" fill="#f2f2f2" r="54.31516" cy="139.7294" cx="479.37657"/>
  <path id="svg_7" fill="#3f3d56" d="m156.88413,109.3796l240.61549,0a51.15011,51.15011 0 0 1 49.89774,39.90061l121.57825,539.2673a41.34031,41.34031 0 0 1 -38.29378,50.38228l-247.35435,12.18715a54.6149,54.6149 0 0 1 -56.43046,-44.82745l-68.9666,-381.268l-5.13081,1.466l-13.19613,-72.26456l5.28146,-1.32036l-19.251,-106.42558a31.49278,31.49278 0 0 1 31.25019,-37.09739z"/>
  <path id="svg_8" fill="#6c63ff" d="m365.82297,121.00479l28.08708,0a35.34864,35.34864 0 0 1 34.53619,27.81348l116.69837,534.86752a21.90325,21.90325 0 0 1 -19.96738,26.52542l-246.55417,16.15894a28.36685,28.36685 0 0 1 -29.77274,-23.27749l-99.57949,-552.8377a24.84574,24.84574 0 0 1 24.45227,-29.25017l26.645,0a11.72583,11.72583 0 0 1 11.32265,8.67742l0,0a10.35184,10.35184 0 0 0 9.9959,7.66063l126.49318,0a17.69522,17.69522 0 0 0 17.6431,-16.33806l0.00004,0.00001z"/>
  <rect id="svg_9" fill="#2f2e41" height="1.25677" width="255.12532" y="259.25001" x="189.24608"/>
  <rect id="svg_10" fill="#2f2e41" height="1.25677" width="257.63887" y="300.0952" x="196.78673"/>
  <polygon id="svg_11" fill="#2f2e41" points="205.357 257.26 211.154 249.531 210.149 248.777 205.139 255.457 185.833 239.661 185.038 240.635 205.357 257.26"/>
  <polygon id="svg_12" fill="#2f2e41" points="238.662 439.492 244.459 431.763 243.454 431.01 238.443 437.689 219.137 421.894 218.342 422.867 238.662 439.492"/>
  <rect id="svg_13" fill="#2f2e41" transform="rotate(-1.2131400108337402 -101.75856781005838,-63.95891189575175) " height="1.25706" width="267.12456" y="451.85812" x="204.77302"/>
  <rect id="svg_14" fill="#2f2e41" transform="rotate(-1.3229899406433105 -103.59158325195216,-62.952880859374716) " height="1.25712" width="272.16433" y="490.25318" x="206.07561"/>
  <path id="svg_15" opacity="0.1" d="m324.0352,583.81215a59.69681,59.69681 0 0 0 119.39362,0c0,-0.74775 -0.01258,-1.48928 -0.044,-2.23081a59.69562,59.69562 0 0 0 -119.34959,2.23081l-0.00003,0z"/>
  <path id="svg_16" opacity="0.1" d="m329.69069,607.06249c0,0.74774 0.01258,1.48927 0.044,2.2308a59.7041,59.7041 0 0 0 113.69414,-25.48114c0,-0.74775 -0.01258,-1.48928 -0.044,-2.23081a59.7041,59.7041 0 0 0 -113.6941,25.48115l-0.00004,0z"/>
  <circle id="svg_17" fill="#2f2e41" r="36.79985" cy="234.91667" cx="692.9535"/>
  <polygon id="svg_18" fill="#9f616a" points="732.654 696.064 739.654 726.064 722.654 726.064 715.654 692.064 732.654 696.064"/>
  <polygon id="svg_19" fill="#9f616a" points="650.654 696.064 650.654 724.064 633.654 726.064 633.654 696.064 650.654 696.064"/>
  <path id="svg_20" fill="#9f616a" d="m737.65366,378.06389s-2,43 -4,46s-20,46 -20,46l-9,-28s14,-23 12,-36s-0.74,-28.99711 -0.74,-28.99711l21.74,0.99711z"/>
  <circle id="svg_21" fill="#9f616a" r="28" cy="246.06388" cx="680.65365"/>
  <path id="svg_22" fill="#9f616a" d="m703.65366,249.06389s-1,40 6,46s-40,1 -40,1s10,-28 2,-34s32,-13 32,-13z"/>
  <path id="svg_23" fill="#2f2e41" d="m666.65366,294.06389s6,-11 14,-10s34,3 35,5s4,9 6,11s17,5 18,17s-36,85 -36,85s5,17 4,21s5,16 4,21s15,35 7,74l0,63s27,109 19,117s-35,3 -40,0s-26,-154 -26,-154l-10,-51l-1,112s2,94 -5,97s-34,4 -36,-2c-1.55984,-4.67951 -9.2024,-129.18869 -12.49082,-183.76644a203.905,203.905 0 0 1 4.40284,-56.17549c4.16209,-18.87768 10.20448,-41.05657 17.088,-50.05807c13,-17 21,-71 21,-71l-17,-31s10,-10 16,-10s17.99998,-4 17.99998,-4z"/>
  <path id="svg_24" fill="#2f2e41" d="m733.65366,310.06389l5.27357,3.58937s3.72643,64.41063 0.72643,68.41063s-23.85728,2.04776 -25.42864,-1.47612s19.42864,-70.52388 19.42864,-70.52388z"/>
  <path id="svg_25" fill="#9f616a" d="m644.47702,368.62742c2.92713,20.30658 5.49231,38.38334 -9.47485,54.73713a280.86164,280.86164 0 0 1 -50.53357,43.77194c-1.83569,4.86276 -28.78522,40.57217 -30.15613,26.32809s7.94006,-25.41089 21.17151,-37.45617s31.74237,-38.18036 42.18689,-52.5207s6.14465,-23.28283 5.78186,-35.261s16.91754,0.54567 21.02429,0.40071z"/>
  <path id="svg_26" fill="#2f2e41" d="m633.65366,707.8631s-1,11.20079 -4,14.20079s-11,7 -10,18s7.5,11.5 7.5,11.5l-0.5,-2.5l3,1l0.5,1.5l28,0s0.5,-10.5 -0.5,-15.5s-1,-29 -4,-28s-11,2 -13,6s-8,2.59842 -7,-6.20079z"/>
  <path id="svg_27" fill="#2f2e41" d="m735.65366,707.8631s1,11.20079 4,14.20079s11,7 10,18s-7.5,11.5 -7.5,11.5l0.5,-2.5l-3,1l-0.5,1.5l-28,0s-0.5,-10.5 0.5,-15.5s1,-29 4,-28s11,2 13,6s8,2.59842 7,-6.20079z"/>
  <path id="svg_28" fill="#2f2e41" d="m646.65366,305.06389l-14,3s0,22 -4,31s-11,30 -8,31s31,15 33,7s7,-72 -7,-72z"/>
  <circle id="svg_29" fill="#2f2e41" r="36.79985" cy="186.46354" cx="732.82"/>
  <path id="svg_30" fill="#2f2e41" d="m764.56183,216.93618a36.80185,36.80185 0 0 1 -56.82871,-19.323a36.80188,36.80188 0 1 0 71.78659,-15.09134a36.78829,36.78829 0 0 1 -14.95788,34.41434z"/>
  <circle id="svg_31" fill="#2f2e41" r="26.98656" cy="241.04997" cx="702.76678"/>
  <ellipse id="svg_32" fill="#2f2e41" ry="18.70659" rx="23.9199" cy="230.93" cx="680.07355"/>
  <ellipse id="svg_33" fill="#a0616a" ry="8.03191" rx="4.53977" cy="250.09857" cx="673.69343"/>
 </g>
</svg>