<svg width="189.47557" height="512.35332" xmlns="http://www.w3.org/2000/svg">

 <g>
  <title>background</title>
  <rect fill="none" id="canvas_background" height="514.35332" width="191.47557" y="-1" x="-1"/>
 </g>
 <g>
  <title>Layer 1</title>
  <path id="svg_2" fill="#a0616a" d="m119.14645,160.40127l-21.73913,43.0372l-65.00091,29.55031c-6.94151,11.7311 -28.99936,12.629 -30.60352,5.04275c-1.79962,-8.51058 26.78569,-22.20865 26.78569,-22.20865l54.3682,-36.77354l4.757,-31.65725l31.43267,13.00918z"/>
  <polygon id="svg_3" fill="#a0616a" points="116.58197021484375,449.2149963378906 120.59100341796875,481.2879943847656 97.3380126953125,482.8919982910156 94.9329833984375,449.2149963378906 116.58197021484375,449.2149963378906 "/>
  <path id="svg_4" fill="#2f2e41" d="m113.37457,476.47757a62.964,62.964 0 0 0 5.73784,-7.017c3.33247,-4.61149 6.28944,19.04434 6.28944,19.04434s3.20727,9.6218 2.40545,14.43278s-19.24374,4.811 -22.451,4.00912s-19.24371,0 -19.24371,0l-24.05465,0c-20.84735,-9.62181 0,-16.03641 0,-16.03641c6.41457,-0.80178 28.06376,-20.84738 28.06376,-20.84738l4.81094,-8.82c3.20727,-0.80185 6.41457,11.22551 6.41457,11.22551l12.02736,4.00904z"/>
  <polygon id="svg_5" fill="#a0616a" points="176.718017578125,449.6159973144531 180.72802734375,481.6889953613281 157.4749755859375,483.2929992675781 155.0689697265625,449.6159973144531 176.718017578125,449.6159973144531 "/>
  <path id="svg_6" fill="#2f2e41" d="m173.51118,476.87843a62.96609,62.96609 0 0 0 5.73785,-7.017c3.33247,-4.6115 6.28944,19.04434 6.28944,19.04434s3.2073,8.82 2.40545,13.631s-19.24374,4.8109 -22.451,4.00912s-19.24371,0.80185 -19.24371,0.80185l-24.05466,0c-20.84734,-9.6218 0,-16.03641 0,-16.03641c6.41457,-0.80185 28.06377,-20.84737 28.06377,-20.84737l4.81093,-8.82c3.20731,-0.80185 6.41457,11.22551 6.41457,11.22551l12.02736,4.00896z"/>
  <path id="svg_7" fill="#2f2e41" d="m150.25828,242.74667c3.2073,4.00905 1.60367,17.64 1.60367,17.64s5.61275,44.10039 3.2073,48.10951s1.60364,7.21638 4.00912,12.82914s4.81094,19.24374 4.81094,19.24374c13.631,11.22544 12.82914,62.542 12.82914,62.542l4.81094,45.70381c-1.60364,4.8109 -24.05462,5.61275 -27.26192,4.8109s-12.82914,-72.96579 -12.82914,-72.96579l-21.64919,-40.89291s1.60363,109.04773 1.60363,113.8587s-21.64916,2.40548 -26.4601,2.40548s-4.81093,-80.18218 -4.81093,-80.18218l-4.81096,-20.84729l-25.65826,-95.41681l0,-11.2255l4.00908,-5.61276s83.38938,-4.00904 86.59668,-0.00004z"/>
  <circle id="svg_8" fill="#a0616a" r="24.85646" cy="35.87672" cx="114.97819"/>
  <path id="svg_9" fill="#a0616a" d="m102.54992,47.50313c5.03845,11.21948 2.05506,26.89026 -8.01821,44.10021l40.89291,-19.24367l-6.41457,-5.61275l1.60363,-16.03645l-28.06376,-3.20734z"/>
  <path id="svg_10" fill="#6c63ff" d="m102.54999,73.16155c-5.355,3.18357 -8.55834,9.03293 -10.39721,14.98518a142.00887,142.00887 0 0 0 -6.10241,33.92893l-1.94228,34.4753l-24.05464,91.40765c20.84734,17.64 32.87473,13.631 60.93843,-0.80185s31.271,4.8109 31.271,4.8109s2.40548,-0.80178 0,-3.20727s0,0 2.40545,-2.40548s0,0 -0.80182,-2.40549s0,-0.80178 0.80182,-1.60363s-3.20727,-8.01824 -3.20727,-8.01824l6.41457,-60.13665l8.0182,-84.993c-9.62187,-12.02732 -36.88378,-22.451 -36.88378,-22.451l-24.85647,17.64002c-8.0182,3.20726 -1.60363,-9.62188 -1.60363,-9.62188l0.00004,-1.60349z"/>
  <path id="svg_11" fill="#a0616a" d="m179.12394,140.11345l3.20726,48.10929l-40.8929,58.533c0,13.631 -7.21639,16.83826 -7.21639,16.83826a105.99109,105.99109 0 0 1 -7.21639,-13.631c-4.00912,-8.82 2.40545,-16.03641 2.40545,-16.03641l28.06373,-59.3348l-12.02732,-29.66733l33.67656,-4.81101z"/>
  <path id="svg_12" fill="#6c63ff" d="m165.49287,89.59874c13.631,4.81091 16.03645,56.92932 16.03645,56.92932c-16.03645,-8.82 -35.28016,5.61275 -35.28016,5.61275s-4.00905,-13.63092 -8.82,-31.271a30.64413,30.64413 0 0 1 6.41457,-28.86558s8.01815,-7.21639 21.64914,-2.40549z"/>
  <path id="svg_13" fill="#2f2e41" d="m137.83007,43.49401c-3.16431,-2.5315 -7.48122,2.07 -7.48122,2.07l-2.53146,-22.78327s-15.82173,1.89865 -25.94762,-0.63285s-11.70807,9.17658 -11.70807,9.17658a81.263,81.263 0 0 1 -0.31643,-14.23954c0.63285,-5.69581 8.86012,-11.39165 23.41612,-15.18885s22.15039,12.65737 22.15039,12.65737c10.12592,5.06296 5.5826,31.47206 2.41829,28.94056z"/>
 </g>
</svg>