<svg width="370" height="520" xmlns="http://www.w3.org/2000/svg">

 <g>
  <title>background</title>
  <rect fill="none" id="canvas_background" height="522" width="372" y="-1" x="-1"/>
 </g>
 <g>
  <title>Layer 1</title>
  <path opacity="0.95" stroke="null" id="svg_1" fill="#f2f2f2" d="m167.64284,513.48145c-11.13833,-9.4118 -17.90393,-24.27967 -16.12965,-38.75366s12.76358,-27.78 27.01831,-30.85364s30.50415,5.43465 34.83378,19.3594c2.3828,-26.84637 5.12854,-54.81757 19.40179,-77.67976c12.92407,-20.70115 35.3088,-35.51364 59.5688,-38.16357s49.80265,7.35859 64.93272,26.50671s18.83461,46.98549 8.2379,68.96911c-7.80623,16.19456 -22.188,28.24676 -37.2566,38.05184a240.45181,240.45181 0 0 1 -164.45376,35.97709l3.84671,-3.41352z"/>
  <path id="svg_2" fill="#fff" d="m334.82869,355.30361a393.41394,393.41394 0 0 0 -54.82622,54.44229a394.561,394.561 0 0 0 -61.752,103.194c-1.112,2.72484 3.31272,3.911 4.4123,1.21642a392.34209,392.34209 0 0 1 115.40147,-155.61717c2.28437,-1.86015 -0.97,-5.08035 -3.23555,-3.23554z"/>
  <g stroke="null" opacity="0.96" id="svg_79">
   <g stroke="null" transform="matrix(0.7768674773032668,0,0,0.7768674773032668,-4534.617669423511,-2561.561510033228) " id="svg_77">
    <title stroke="null" transform="translate(-48.894432067871094,37.918128967285156) translate(45.90089416503906,-33.9267463684082) translate(0,-0.997845470905304) translate(-643.6103515625,-0.997845470905304) translate(9.094947017729282e-13,3.100649118423462) translate(9.094947017729282e-13,-0.00004731287117465399) translate(9.094947017729282e-13,-0.6960906386375427) translate(4.807280540466309,0) translate(100.95289611816406,-2.4036402702331543) translate(9.094947017729282e-13,2.4036402702331543) translate(80.61810302734375,-231.0018768310547) translate(6293.71630859375,0) translate(0,3529.00634765625) ">background</title>
    <rect stroke="null" x="5832.4907" y="3301.40467" width="341" height="670.13131" id="svg_75" fill="none"/>
   </g>
   <g stroke="null" transform="matrix(0.7768674773032668,0,0,0.7768674773032668,-4534.617669423511,-2561.561510033228) " id="svg_78">
    <title stroke="null" transform="translate(-48.894432067871094,37.918128967285156) translate(45.90089416503906,-33.9267463684082) translate(0,-0.997845470905304) translate(-643.6103515625,-0.997845470905304) translate(9.094947017729282e-13,3.100649118423462) translate(9.094947017729282e-13,-0.00004731287117465399) translate(9.094947017729282e-13,-0.6960906386375427) translate(4.807280540466309,0) translate(100.95289611816406,-2.4036402702331543) translate(9.094947017729282e-13,2.4036402702331543) translate(80.61810302734375,-231.0018768310547) translate(6293.71630859375,0) translate(0,3529.00634765625) ">Layer 1</title>
    <path stroke="null" d="m6003.44778,3946.51349c0.17359,17.79414 -10.34427,24.10956 -23.39225,24.23685q-0.45462,0.00442 -0.90495,-0.00133q-0.90727,-0.01072 -1.796,-0.06514c-11.78437,-0.71893 -20.9982,-7.16091 -21.15963,-23.70942c-0.16706,-17.12566 21.50989,-38.95143 23.1358,-40.56546l0.00287,-0.00148c0.06177,-0.06151 0.09339,-0.09226 0.09339,-0.09226s23.8472,22.40554 24.02077,40.19824z" fill="#6c63ff" id="svg_74"/>
    <circle stroke="null" cx="6006.4907" cy="3468.40467" r="166" fill="#6c63ff" id="svg_73"/>
    <polygon stroke="null" points="6022.490821838379,3968.40470123291 5988.490821838379,3968.40470123291 6003.990821838379,3443.40470123291 6022.490821838379,3968.40470123291 " fill="#3f3d56" id="svg_72"/>
    <polygon stroke="null" points="6006.990821838379,3542.90470123291 6043.490821838379,3492.40470123291 6006.490821838379,3555.40470123291 6002.490821838379,3548.40470123291 6006.990821838379,3542.90470123291 " fill="#3f3d56" id="svg_71"/>
    <polygon stroke="null" points="6002.990821838379,3593.90470123291 5966.490821838379,3543.40470123291 6003.490821838379,3606.40470123291 6007.490821838379,3599.40470123291 6002.990821838379,3593.90470123291 " fill="#3f3d56" id="svg_70"/>
   </g>
  </g>
 </g>
</svg>