<svg xmlns="http://www.w3.org/2000/svg" width="1135.647" height="1242.591" viewBox="0 0 1135.647 1242.591">
  <g id="Grupo_10" data-name="Grupo 10" transform="translate(-918.875 -1047.41)">
    <path id="Sustracción_1" data-name="Sustracción 1" d="M3094.294,5794.386a74.34,74.34,0,0,1-28.045-5.481,73.712,73.712,0,0,1-24.6-16.424c-2.4-2.413-15.429-15.6-36.8-38.348-28.145-29.948-57.6-62.43-87.538-96.545-41.319-47.079-82.267-95.82-121.708-144.87-48.992-60.927-95.864-122.6-139.314-183.318-17.721-24.76-35.091-49.657-51.63-74a954.219,954.219,0,0,0,994.9-9.583c-21.4,31.72-44.148,64.155-67.6,96.408-190.518,262.043-378.313,443.8-386.214,451.407a73.833,73.833,0,0,1-37.619,19.459A74.721,74.721,0,0,1,3094.294,5794.386Z" transform="translate(-1607.755 -3504.384)" fill="#cb3434"/>
    <g id="bicicleta" transform="translate(918.875 1047.41)">
      <g id="Grupo_3" data-name="Grupo 3" transform="translate(0 0)">
        <g id="Grupo_2" data-name="Grupo 2">
          <path id="Trazado_2" data-name="Trazado 2" d="M1110.129,441.835A230.467,230.467,0,0,0,832.952,328.56l-94.5-189H887.12a17.737,17.737,0,1,1,0,35.473H816.174a17.737,17.737,0,0,0,0,35.473H887.12a53.21,53.21,0,0,0,0-106.42H709.754a17.736,17.736,0,0,0-15.963,25.665l22.738,45.282H401.454l-17.737-35.473h95.458a17.737,17.737,0,1,0,0-35.473H301.81a17.737,17.737,0,1,0,0,35.473h42.249l26.6,53.21-67.9,135.791c-120.953-39.836-251.3,25.92-291.133,146.872s25.92,251.3,146.872,291.133,251.3-25.92,291.133-146.872a230.614,230.614,0,0,0,10.895-54.456H567.859a17.553,17.553,0,0,0,4.257-.55l.372-.089c.408-.106.763-.337,1.171-.461a18.719,18.719,0,0,0,2.111-.763c.106,0,.16-.142.248-.2s.5-.248.727-.39a17.837,17.837,0,0,0,1.49-1.082,18.873,18.873,0,0,0,2.164-1.774l.692-.709c.266-.3.426-.639.674-.958a17.3,17.3,0,0,0,1.171-1.437c.142-.248.213-.532.337-.78s.319-.39.443-.621l161.509-323,54.983,109.967c-113.042,58.123-157.563,196.878-99.44,309.918s196.878,157.563,309.918,99.44S1168.25,554.875,1110.129,441.835ZM230.864,742.6c-107.752.151-195.224-87.078-195.375-194.83S122.566,352.549,230.318,352.4a195.083,195.083,0,0,1,56.4,8.248L197.253,539.573a17.737,17.737,0,0,0,15.874,25.665H425.062A195.281,195.281,0,0,1,230.864,742.6Zm10.961-212.839,77.881-155.745A195.226,195.226,0,0,1,425.062,529.764Zm218.71,0A230.574,230.574,0,0,0,335.51,342.324l54.983-109.967L539.161,529.764Zm107.324-21.922L419.191,210.506H716.527Zm393.4,226.514a195.09,195.09,0,0,1-56.4,8.248c-107.674.089-195.032-87.127-195.12-194.8A194.962,194.962,0,0,1,816.012,374.019l90.7,181.41a17.744,17.744,0,0,0,31.749-15.857L849,360.646c103.2-31,211.983,27.532,242.98,130.73S1064.453,703.359,961.255,734.356Z" transform="translate(0 -104.086)" fill="#cb3434"/>
        </g>
      </g>
      <g id="Grupo_5" data-name="Grupo 5" transform="translate(195.391 478.888)">
        <g id="Grupo_4" data-name="Grupo 4">
          <path id="Trazado_3" data-name="Trazado 3" d="M123.6,320.086H105.867a17.737,17.737,0,0,0,0,35.473H123.6a17.737,17.737,0,1,0,0-35.473Z" transform="translate(-88.13 -320.086)" fill="#cb3434"/>
        </g>
      </g>
      <g id="Grupo_7" data-name="Grupo 7" transform="translate(266.337 478.888)">
        <g id="Grupo_6" data-name="Grupo 6">
          <path id="Trazado_4" data-name="Trazado 4" d="M155.6,320.086H137.867a17.737,17.737,0,1,0,0,35.473H155.6a17.737,17.737,0,1,0,0-35.473Z" transform="translate(-120.13 -320.086)" fill="#cb3434"/>
        </g>
      </g>
      <g id="Grupo_9" data-name="Grupo 9" transform="translate(337.283 478.888)">
        <g id="Grupo_8" data-name="Grupo 8">
          <path id="Trazado_5" data-name="Trazado 5" d="M187.6,320.086H169.867a17.737,17.737,0,1,0,0,35.473H187.6a17.737,17.737,0,0,0,0-35.473Z" transform="translate(-152.13 -320.086)" fill="#cb3434"/>
        </g>
      </g>
    </g>
  </g>
</svg>
